<svg width="39" height="39" viewBox="0 0 39 39" fill="none" xmlns="http://www.w3.org/2000/svg">
<path d="M23.868 37.7991C23.1211 38.5459 22.1956 38.9194 21.0915 38.9194C19.9874 38.9194 19.0619 38.5459 18.315 37.7991L1.16904 20.6531C0.811835 20.2959 0.527693 19.8737 0.316616 19.3866C0.105539 18.8995 0 18.38 0 17.8279V3.89681C0 2.82519 0.381563 1.90781 1.14469 1.14469C1.90781 0.381563 2.82519 0 3.89681 0H17.8279C18.38 0 18.8995 0.105539 19.3866 0.316616C19.8737 0.527693 20.2959 0.811835 20.6531 1.16904L37.7991 18.3637C38.5459 19.1106 38.9194 20.028 38.9194 21.1158C38.9194 22.2037 38.5459 23.1211 37.7991 23.868L23.868 37.7991ZM21.0915 35.0713L35.0226 21.1402L17.8279 3.89681H3.89681V17.8279L21.0915 35.0713ZM8.76782 11.6904C9.57966 11.6904 10.2697 11.4063 10.838 10.838C11.4063 10.2697 11.6904 9.57966 11.6904 8.76782C11.6904 7.95599 11.4063 7.26593 10.838 6.69764C10.2697 6.12936 9.57966 5.84521 8.76782 5.84521C7.95599 5.84521 7.26593 6.12936 6.69764 6.69764C6.12936 7.26593 5.84521 7.95599 5.84521 8.76782C5.84521 9.57966 6.12936 10.2697 6.69764 10.838C7.26593 11.4063 7.95599 11.6904 8.76782 11.6904Z" fill="#0A5C49"/>
</svg>
