<svg width="39" height="40" viewBox="0 0 39 40" fill="none" xmlns="http://www.w3.org/2000/svg">
<path d="M23.868 38.3697C23.1211 39.1166 22.1956 39.4901 21.0915 39.4901C19.9874 39.4901 19.0619 39.1166 18.315 38.3697L1.16904 21.2238C0.811835 20.8666 0.527693 20.4444 0.316616 19.9573C0.105539 19.4702 0 18.9506 0 18.3986V4.46749C0 3.39587 0.381563 2.47849 1.14469 1.71537C1.90781 0.952241 2.82519 0.570679 3.89681 0.570679H17.8279C18.38 0.570679 18.8995 0.676217 19.3866 0.887295C19.8737 1.09837 20.2959 1.38251 20.6531 1.73972L37.7991 18.9344C38.5459 19.6813 38.9194 20.5987 38.9194 21.6865C38.9194 22.7744 38.5459 23.6917 37.7991 24.4386L23.868 38.3697ZM21.0915 35.642L35.0226 21.7109L17.8279 4.46749H3.89681V18.3986L21.0915 35.642ZM8.76782 12.2611C9.57966 12.2611 10.2697 11.977 10.838 11.4087C11.4063 10.8404 11.6904 10.1503 11.6904 9.3385C11.6904 8.52667 11.4063 7.83661 10.838 7.26832C10.2697 6.70004 9.57966 6.41589 8.76782 6.41589C7.95599 6.41589 7.26593 6.70004 6.69764 7.26832C6.12936 7.83661 5.84521 8.52667 5.84521 9.3385C5.84521 10.1503 6.12936 10.8404 6.69764 11.4087C7.26593 11.977 7.95599 12.2611 8.76782 12.2611Z" fill="white"/>
</svg>
